<svg xmlns="http://www.w3.org/2000/svg" xmlns:xlink="http://www.w3.org/1999/xlink" viewBox="0 0 811.54 319.06"><defs><style>.cls-1{fill:url(#Dégradé_sans_nom_48);}.cls-2{fill:url(#Dégradé_sans_nom_47);}.cls-3{fill:#010101;}</style><linearGradient id="Dégradé_sans_nom_48" x1="178.6" y1="275.8" x2="36.58" y2="29.81" gradientUnits="userSpaceOnUse"><stop offset="0" stop-color="#c0181b"/><stop offset="1" stop-color="#661411"/></linearGradient><linearGradient id="Dégradé_sans_nom_47" x1="148.02" y1="139.61" x2="76.45" y2="15.64" gradientUnits="userSpaceOnUse"><stop offset="0" stop-color="#e52621"/><stop offset="1" stop-color="#af191a"/></linearGradient></defs><g id="Layer_2" data-name="Layer 2"><g id="Calque_1" data-name="Calque 1"><g id="_8Zgowz.tif" data-name="8Zgowz.tif"><path class="cls-1" d="M23.4,165.46c.32-1,1.37-4.18,2.14-6.24.31-.81.6-1.68.95-2.53,20.54,35.66,47.75,67.05,78.26,89.79,5.13,3.83,10.71,7.32,16.79,11.48l.08-28.65s-2-1.45-3.12-2.21a251.05,251.05,0,0,1-62.26-58.57c-6.39-8.49-12.69-17.14-18.33-26.37-.79-1.29-2.26-4.34-2.26-4.29a11.59,11.59,0,0,0,.69-1.06c.26-.45.6-1,.94-1.52.14-.24.32-.51.48-.76s.31-.48.49-.75l.81-1.24,1-1.44c.21-.31.52-.73.74-1s.23-.33.38-.54c.91-1.26,2-2.7,3-4,20.47,34.77,45.7,60.93,77.37,81.24,0-9.59.08-28.93.08-28.93l-3.79-2.45c-23.12-15.63-43-35.85-59.71-60.42-.63-.92-.94-1.58-1.67-2.83,2.27-2,4.56-4,7-5.92,1.91-1.49,3.9-2.91,5.83-4.19,1.5-1,2.93-1.86,4.37-2.69s3-1.72,4.59-2.54c.32-.17,3.55,3.55,4.57,4.73,5.19,6,10.16,12.33,15.33,18.4,2.57,3,6.47,5.53,4.3,9.45-1.67,3-3.94,5.77-1.36,7.86,5.76,4.66,11.33,9.65,17,14.49,2.28,1.95,4.47,2.55,7.19.63,6-4.23,12.26-7.92,18.21-12.25a8.15,8.15,0,0,0,2.69-5.56c.22-40.83.22-81.66.38-122.49,0-3.42-6.94-6.48-9.47-7.81-7.55-4-20.09-4.78-32-3.85C77.38,2.52,42.44,20.86,22.91,56.49,1.13,96.19-8.4,145.62,9,187.74c14.26,34.44,36.2,59.61,63.16,85.22,13.45,12.78,29.14,21.51,43.78,32.41l5.57,3.37c0-9.37.08-28.4.08-28.4l-3.16-2.24C83.35,255.76,55.55,231,32,192.41c-2.41-4-11-19.89-11-19.89"/></g><path class="cls-2" d="M143.76,4.25A109.4,109.4,0,0,0,105.23.34a4.85,4.85,0,0,0-1,.29c-31.4,12.51-53,41.84-53,76.28,0,11.51.73,25.23,5.19,35.18l1-.79c2.26-2,6-5.11,7.84-6.55s4.09-2.81,6-4.08c1.5-1,2.83-1.67,4.28-2.5s1-.61,2.62-1.42c0,0,.52.33.54.34.3.31,4.14,4.52,5.1,5.64,5.2,6,10.08,12.16,15.24,18.23,1.75,2.05,3.25,3.57,3.23,3.75a6.34,6.34,0,0,1-.84,2l-2.79,5.13a4.27,4.27,0,0,0,.4,4.69,13.47,13.47,0,0,0,1.14,1.27c.5.5,3.32,3.32,4.07,4,5.62,4.89,9.16,7.71,14.81,12.55,2.28,1.95,5.05-1.45,7.82-3.24,6.37-4.12,12.07-7.63,18-12,1.38-1,2.68-4.28,2.69-6.18.22-40.83-.33-82.22-.17-123C147.46,6.52,146.44,5,143.76,4.25Z"/><rect class="cls-3" x="176" y="197.3" width="87.8" height="21.63"/><rect class="cls-3" x="176" y="244.62" width="81.17" height="21.63"/><rect class="cls-3" x="176" y="294.12" width="89.6" height="21.63"/><path class="cls-3" d="M342.1,271H321.64v46.88H297.15V195.72h45c29.4,0,44.08,16.63,44.08,37.79C386.18,252.06,373.6,271,342.1,271Zm-1-19.76c13.83,0,19.95-6.82,19.95-17.68,0-11.19-6.12-17.84-19.95-17.84H321.64v35.52Z"/><path class="cls-3" d="M414.42,195.72h24.49V317.83H414.42Z"/><path class="cls-3" d="M544.8,215.5H498.44v30.61h41.11v19.42H498.44v32.36H544.8v19.94H474V195.55H544.8Z"/><path class="cls-3" d="M634.6,319.06c-34.46,0-62.63-25.89-62.63-62.62C572,219.87,600.14,194,634.6,194c34.82,0,62.46,25.89,62.46,62.46C697.06,293.17,669.25,319.06,634.6,319.06Zm0-21.88c22,0,37.26-15.91,37.26-40.74S656.65,216,634.6,216c-22.22,0-37.43,15.55-37.43,40.41S612.38,297.18,634.6,297.18Z"/><path class="cls-3" d="M768.33,319.06c-25.36,0-45-13.3-45.31-36.39h26.24c.7,9.8,7.18,16.27,18.54,16.27,11.54,0,18.38-6.13,18.38-14.87,0-26.42-63-10.49-62.82-54.76,0-22,17.85-35.33,43-35.33,25,0,42.17,12.77,43.74,34.82H783.2c-.53-8.05-7-14.36-17.5-14.53-9.62-.34-16.78,4.37-16.78,14.34,0,24.49,62.62,10.85,62.62,53.89C811.54,301.73,796.14,319.06,768.33,319.06Z"/></g></g></svg>